<?xml version="1.0" encoding="UTF-8"?>
<svg width="510px" height="510px" viewBox="0 0 510 510" version="1.1" xmlns="http://www.w3.org/2000/svg" xmlns:xlink="http://www.w3.org/1999/xlink">
<g id="tick-inside-circle" fill="#000000" fill-rule="nonzero">
  <path d="M150.45,206.55 L114.75,242.25 L229.5,357 L484.5,102 L448.8,66.3 L229.5,285.6 L150.45,206.55 Z M459,255 C459,367.2 367.2,459 255,459 C142.8,459 51,367.2 51,255 C51,142.8 142.8,51 255,51 C275.4,51 293.25,53.55 311.1,58.65 L351.901,17.85 C321.3,7.65 288.15,0 255,0 C114.75,0 0,114.75 0,255 C0,395.25 114.75,510 255,510 C395.25,510 510,395.25 510,255 L459,255 Z"></path>
</g>
</svg>