<svg width="24" height="20" viewBox="0 0 24 20" fill="none" xmlns="http://www.w3.org/2000/svg">
<path d="M18 4.16667C17.2207 4.16927 16.4537 4.35547 15.7645 4.7091C14.9133 4.00933 13.8788 3.55286 12.7766 3.39081C12.5908 2.43824 12.0693 1.57848 11.3018 0.959429C10.5342 0.340572 9.5686 0.00128571 8.57143 0C8.26511 0 7.98215 0.158852 7.82909 0.416667C7.67603 0.674481 7.67603 0.99219 7.82909 1.25C7.98215 1.50781 8.26512 1.66667 8.57143 1.66667C9.11882 1.66927 9.65108 1.84152 10.0908 2.15848C10.5304 2.47563 10.8546 2.92076 11.016 3.42914C9.9913 3.61609 9.0335 4.05695 8.23548 4.7091C7.54633 4.35549 6.77931 4.16929 6 4.16667C2.69138 4.16667 0 7.53162 0 11.6667C0 15.8017 2.69138 19.1667 6 19.1667C6.77927 19.1641 7.54629 18.9779 8.23548 18.6242C9.27742 19.5111 10.6152 20 12 20C13.3848 20 14.7226 19.5111 15.7645 18.6242C16.4537 18.9778 17.2207 19.164 18 19.1667C21.3086 19.1667 24 15.8017 24 11.6667C24 7.53162 21.3086 4.16667 18 4.16667ZM1.71429 11.6667C1.71429 8.44995 3.63693 5.83333 6 5.83333C6.33693 5.83557 6.67117 5.89193 6.98914 6C5.76637 7.64843 5.1193 9.63448 5.14286 11.6667C5.11932 13.6989 5.76637 15.6849 6.98914 17.3333C6.67116 17.4414 6.33693 17.4978 6 17.5C3.63693 17.5 1.71429 14.8834 1.71429 11.6667ZM6.85714 11.6667C6.85714 7.9909 9.16379 5 12 5C14.8362 5 17.1429 7.9909 17.1429 11.6667C17.1429 15.3424 14.8362 18.3333 12 18.3333C9.16379 18.3333 6.85714 15.3424 6.85714 11.6667ZM18 17.5C17.6631 17.4978 17.3288 17.4414 17.0109 17.3333C18.2336 15.6849 18.8807 13.6989 18.8571 11.6667C18.8807 9.63448 18.2336 7.64843 17.0109 6C17.3288 5.89193 17.6631 5.83557 18 5.83333C20.3631 5.83333 22.2857 8.44995 22.2857 11.6667C22.2857 14.8834 20.3631 17.5 18 17.5Z" fill="#26619C"/>
</svg>
